<?xml version="1.0" encoding="UTF-8" standalone="no"?>
<!DOCTYPE svg PUBLIC "-//W3C//DTD SVG 1.1//EN" "http://www.w3.org/Graphics/SVG/1.1/DTD/svg11.dtd">
<svg width="100%" height="100%" viewBox="0 0 512 512" version="1.1" xmlns="http://www.w3.org/2000/svg" xmlns:xlink="http://www.w3.org/1999/xlink" xml:space="preserve" xmlns:serif="http://www.serif.com/" style="fill-rule:evenodd;clip-rule:evenodd;stroke-linejoin:round;stroke-miterlimit:2;">
    <path d="M503.465,26.367L503.465,391.766C503.492,401.559 495.594,409.531 485.801,409.602L26.199,409.602C16.406,409.531 8.508,401.559 8.535,391.766L8.535,26.367C8.508,16.574 16.406,8.605 26.199,8.535L485.801,8.535C495.594,8.605 503.492,16.574 503.465,26.367Z" style="fill:rgb(143,39,136);fill-rule:nonzero;"/>
    <path d="M477.867,26.367L477.867,391.766C478.137,401.305 470.652,409.27 461.117,409.602L25.285,409.602C15.746,409.27 8.266,401.305 8.535,391.766L8.535,26.367C8.266,16.828 15.746,8.863 25.285,8.535L461.117,8.535C470.652,8.863 478.137,16.828 477.867,26.367Z" style="fill:rgb(166,43,129);fill-rule:nonzero;"/>
    <g transform="matrix(1,0,0,1,-2.1187,-1.32224)">
        <path d="M469.332,110.934L469.332,324.266C469.305,333.68 461.68,341.305 452.266,341.332L59.734,341.332C50.309,341.332 42.668,333.691 42.668,324.266L42.668,110.934L469.332,110.934Z" style="fill:url(#_Linear1);fill-rule:nonzero;"/>
    </g>
    <path d="M469.332,59.734L469.332,110.934L42.668,110.934L42.668,59.734C42.695,50.32 50.32,42.695 59.734,42.668L452.266,42.668C461.68,42.695 469.305,50.32 469.332,59.734Z" style="fill:rgb(166,43,129);fill-rule:nonzero;"/>
    <path d="M341.332,469.332L170.668,469.332L196.266,409.602L315.734,409.602L341.332,469.332Z" style="fill:rgb(143,39,136);fill-rule:nonzero;"/>
    <path d="M373.418,503.465L138.582,503.465C134.648,503.445 131.242,500.734 130.332,496.91C129.418,493.086 131.242,489.133 134.742,487.34L170.668,469.332L341.332,469.332L377.258,487.34C380.758,489.133 382.582,493.086 381.668,496.91C380.758,500.734 377.352,503.445 373.418,503.465Z" style="fill:rgb(143,39,136);fill-rule:nonzero;"/>
    <path d="M315.734,469.332L170.668,469.332L196.266,409.602L290.133,409.602L315.734,469.332Z" style="fill:rgb(166,43,129);fill-rule:nonzero;"/>
    <path d="M347.82,503.465L138.582,503.465C134.648,503.445 131.242,500.734 130.332,496.91C129.418,493.086 131.242,489.133 134.742,487.34L170.668,469.332L315.734,469.332L351.66,487.34C355.16,489.133 356.98,493.086 356.07,496.91C355.16,500.734 351.75,503.445 347.82,503.465Z" style="fill:rgb(166,43,129);fill-rule:nonzero;"/>
    <path d="M25.285,409.602L50.883,409.602C41.348,409.27 33.863,401.305 34.133,391.766L34.133,26.367C33.863,16.828 41.348,8.863 50.883,8.535L25.285,8.535C15.746,8.863 8.266,16.828 8.535,26.367L8.535,391.766C8.266,401.305 15.746,409.27 25.285,409.602Z" style="fill:white;fill-rule:nonzero;"/>
    <rect x="0" y="26.359" width="17.066" height="365.414" style="fill:white;fill-rule:nonzero;"/>
    <g>
        <path d="M93.867,76.801C93.867,81.512 90.047,85.332 85.332,85.332C80.621,85.332 76.801,81.512 76.801,76.801C76.801,72.086 80.621,68.266 85.332,68.266C90.047,68.266 93.867,72.086 93.867,76.801Z" style="fill:rgb(71,9,90);fill-rule:nonzero;"/>
        <path d="M128,76.801C128,81.512 124.18,85.332 119.465,85.332C114.754,85.332 110.934,81.512 110.934,76.801C110.934,72.086 114.754,68.266 119.465,68.266C124.18,68.266 128,72.086 128,76.801Z" style="fill:rgb(71,9,90);fill-rule:nonzero;"/>
        <path d="M162.133,76.801C162.133,81.512 158.313,85.332 153.602,85.332C148.887,85.332 145.066,81.512 145.066,76.801C145.066,72.086 148.887,68.266 153.602,68.266C158.313,68.266 162.133,72.086 162.133,76.801Z" style="fill:rgb(71,9,90);fill-rule:nonzero;"/>
        <path d="M8.535,103.16C10.793,103.125 12.957,102.242 14.594,100.684C17.891,97.32 17.891,91.934 14.594,88.566L13.313,87.543C12.836,87.219 12.32,86.957 11.777,86.766C11.289,86.527 10.773,86.355 10.238,86.262C9.676,86.168 9.105,86.113 8.535,86.094C6.273,86.125 4.109,87.008 2.477,88.566C1.707,89.383 1.098,90.336 0.684,91.375C-0.609,94.563 0.094,98.211 2.477,100.695C3.293,101.461 4.25,102.07 5.289,102.484C6.316,102.918 7.418,103.148 8.535,103.16Z" style="fill:rgb(71,9,90);fill-rule:nonzero;"/>
        <path d="M485.793,0L26.207,0C11.699,0.063 -0.023,11.852 0,26.359L0,60.492C0,65.207 3.82,69.027 8.535,69.027C13.246,69.027 17.066,65.207 17.066,60.492L17.066,26.359C17.027,21.273 21.117,17.113 26.207,17.066L485.793,17.066C490.883,17.113 494.973,21.273 494.934,26.359L494.934,391.773C494.973,396.863 490.883,401.02 485.793,401.066L26.207,401.066C21.117,401.02 17.027,396.863 17.066,391.773L17.066,128.758C17.066,124.047 13.246,120.227 8.535,120.227C3.82,120.227 0,124.047 0,128.758L0,391.773C-0.023,406.281 11.699,418.07 26.207,418.133L183.332,418.133L164.055,463.094L130.918,479.668C123.84,483.207 120.121,491.148 121.938,498.852C123.754,506.555 130.633,512 138.547,512L373.453,512C381.367,512 388.246,506.555 390.063,498.852C391.879,491.148 388.16,483.207 381.082,479.668L347.945,463.094L328.668,418.133L485.793,418.133C500.301,418.07 512.023,406.281 512,391.773L512,26.359C512.023,11.852 500.301,0.063 485.793,0ZM373.605,494.934L138.547,494.934L172.68,477.867L339.328,477.867L373.605,494.934ZM328.387,460.801L183.613,460.801L201.891,418.133L310.109,418.133L328.387,460.801Z" style="fill:rgb(71,9,90);fill-rule:nonzero;"/>
        <path d="M477.867,324.266L477.867,59.734C477.867,45.594 466.406,34.133 452.266,34.133L59.734,34.133C45.594,34.133 34.133,45.594 34.133,59.734L34.133,324.266C34.133,338.406 45.594,349.867 59.734,349.867L452.266,349.867C466.406,349.867 477.867,338.406 477.867,324.266ZM51.199,59.734C51.199,55.02 55.02,51.199 59.734,51.199L452.266,51.199C456.98,51.199 460.801,55.02 460.801,59.734L460.801,102.398L51.199,102.398L51.199,59.734ZM51.199,324.266L51.199,119.465L460.801,119.465L460.801,324.266C460.801,328.98 456.98,332.801 452.266,332.801L59.734,332.801C55.02,332.801 51.199,328.98 51.199,324.266Z" style="fill:rgb(71,9,90);fill-rule:nonzero;"/>
        <path d="M134.031,147.566C133.957,147.488 133.855,147.465 133.777,147.395C133.051,146.684 132.199,146.105 131.27,145.691C131.191,145.672 131.113,145.652 131.039,145.629C130.18,145.316 129.277,145.145 128.367,145.117C128.066,145.113 127.77,145.129 127.473,145.16C126.758,145.207 126.059,145.344 125.379,145.57C125.09,145.652 124.805,145.754 124.527,145.867C123.574,146.273 122.707,146.852 121.969,147.574L87.832,181.707C84.602,185.059 84.645,190.379 87.938,193.672C91.23,196.961 96.551,197.008 99.898,193.773L119.465,174.199L119.465,298.668C119.465,303.379 123.289,307.199 128,307.199C132.711,307.199 136.535,303.379 136.535,298.668L136.535,174.199L156.102,193.766C159.449,197 164.77,196.953 168.063,193.664C171.355,190.371 171.398,185.047 168.168,181.699L134.031,147.566Z" style="fill:rgb(71,9,90);fill-rule:nonzero;"/>
        <path d="M390.031,147.566C389.957,147.488 389.855,147.465 389.777,147.395C389.051,146.684 388.199,146.105 387.27,145.691C387.191,145.672 387.113,145.652 387.039,145.629C386.18,145.316 385.277,145.145 384.367,145.117C384.066,145.113 383.77,145.129 383.473,145.16C382.758,145.207 382.059,145.344 381.379,145.57C381.09,145.652 380.805,145.754 380.527,145.867C379.574,146.273 378.707,146.852 377.969,147.574L343.832,181.707C340.602,185.059 340.645,190.379 343.937,193.672C347.23,196.961 352.551,197.008 355.898,193.773L375.465,174.199L375.465,298.668C375.465,303.379 379.289,307.199 384,307.199C388.711,307.199 392.535,303.379 392.535,298.668L392.535,174.199L412.102,193.766C415.449,197 420.77,196.953 424.063,193.664C427.355,190.371 427.398,185.047 424.168,181.699L390.031,147.566Z" style="fill:rgb(71,9,90);fill-rule:nonzero;"/>
        <g transform="matrix(124.594,0,0,144,218.148,273.448)">
            <path d="M0.096,-0C0.083,-0 0.073,-0.003 0.068,-0.009C0.062,-0.015 0.059,-0.024 0.059,-0.036L0.059,-0.643C0.059,-0.656 0.062,-0.665 0.068,-0.671C0.073,-0.677 0.083,-0.68 0.096,-0.68L0.149,-0.68C0.162,-0.68 0.172,-0.677 0.178,-0.671C0.184,-0.665 0.187,-0.656 0.187,-0.643L0.187,-0.391L0.515,-0.391L0.515,-0.643C0.515,-0.656 0.518,-0.665 0.524,-0.671C0.53,-0.677 0.54,-0.68 0.553,-0.68L0.605,-0.68C0.618,-0.68 0.628,-0.677 0.634,-0.671C0.64,-0.665 0.643,-0.656 0.643,-0.643L0.643,-0.036C0.643,-0.024 0.64,-0.015 0.635,-0.009C0.629,-0.003 0.619,-0 0.605,-0L0.553,-0C0.54,-0 0.53,-0.003 0.524,-0.009C0.518,-0.015 0.515,-0.024 0.515,-0.036L0.515,-0.294L0.187,-0.294L0.187,-0.036C0.187,-0.024 0.184,-0.015 0.179,-0.009C0.173,-0.003 0.163,-0 0.149,-0L0.096,-0Z" style="fill:rgb(250,57,105);fill-rule:nonzero;"/>
        </g>
        <path d="M221.867,366.934C217.152,366.934 213.332,370.754 213.332,375.465C213.332,380.18 217.152,384 221.867,384L290.133,384C294.848,384 298.668,380.18 298.668,375.465C298.668,370.754 294.848,366.934 290.133,366.934L221.867,366.934Z" style="fill:rgb(71,9,90);fill-rule:nonzero;"/>
    </g>
    <defs>
        <linearGradient id="_Linear1" x1="0" y1="0" x2="1" y2="0" gradientUnits="userSpaceOnUse" gradientTransform="matrix(323.514,323.522,-323.522,323.514,94.2346,59.367)"><stop offset="0" style="stop-color:rgb(166,43,129);stop-opacity:1"/><stop offset="0.17" style="stop-color:rgb(166,43,129);stop-opacity:1"/><stop offset="0.17" style="stop-color:rgb(166,43,129);stop-opacity:1"/><stop offset="0.2" style="stop-color:rgb(166,43,129);stop-opacity:1"/><stop offset="0.2" style="stop-color:rgb(218,226,242);stop-opacity:1"/><stop offset="0.2" style="stop-color:rgb(235,234,242);stop-opacity:1"/><stop offset="0.2" style="stop-color:rgb(246,239,242);stop-opacity:1"/><stop offset="0.21" style="stop-color:rgb(255,243,242);stop-opacity:1"/><stop offset="0.25" style="stop-color:rgb(255,243,242);stop-opacity:1"/><stop offset="0.25" style="stop-color:rgb(166,43,129);stop-opacity:1"/><stop offset="0.26" style="stop-color:rgb(166,43,129);stop-opacity:1"/><stop offset="0.4" style="stop-color:rgb(166,43,129);stop-opacity:1"/><stop offset="0.42" style="stop-color:rgb(166,43,129);stop-opacity:1"/><stop offset="0.42" style="stop-color:rgb(218,226,242);stop-opacity:1"/><stop offset="0.42" style="stop-color:rgb(235,234,242);stop-opacity:1"/><stop offset="0.42" style="stop-color:rgb(246,239,242);stop-opacity:1"/><stop offset="0.42" style="stop-color:rgb(253,242,242);stop-opacity:1"/><stop offset="0.43" style="stop-color:rgb(255,243,242);stop-opacity:1"/><stop offset="0.49" style="stop-color:rgb(255,243,242);stop-opacity:1"/><stop offset="0.5" style="stop-color:rgb(248,240,242);stop-opacity:1"/><stop offset="0.5" style="stop-color:rgb(231,232,242);stop-opacity:1"/><stop offset="0.5" style="stop-color:rgb(220,227,242);stop-opacity:1"/><stop offset="0.5" style="stop-color:rgb(213,224,242);stop-opacity:1"/><stop offset="0.5" style="stop-color:rgb(166,43,129);stop-opacity:1"/><stop offset="0.52" style="stop-color:rgb(166,43,129);stop-opacity:1"/><stop offset="0.71" style="stop-color:rgb(166,43,129);stop-opacity:1"/><stop offset="0.74" style="stop-color:rgb(166,43,129);stop-opacity:1"/><stop offset="0.74" style="stop-color:rgb(255,243,242);stop-opacity:1"/><stop offset="0.85" style="stop-color:rgb(255,243,242);stop-opacity:1"/><stop offset="0.85" style="stop-color:rgb(166,43,129);stop-opacity:1"/><stop offset="0.85" style="stop-color:rgb(166,43,129);stop-opacity:1"/><stop offset="0.87" style="stop-color:rgb(166,43,129);stop-opacity:1"/><stop offset="0.9" style="stop-color:rgb(166,43,129);stop-opacity:1"/><stop offset="1" style="stop-color:rgb(166,43,129);stop-opacity:1"/></linearGradient>
    </defs>
</svg>
