<?xml version="1.0" encoding="UTF-8" standalone="no"?>
<!DOCTYPE svg PUBLIC "-//W3C//DTD SVG 1.1//EN" "http://www.w3.org/Graphics/SVG/1.1/DTD/svg11.dtd">
<svg width="100%" height="100%" viewBox="0 0 461 461" version="1.1" xmlns="http://www.w3.org/2000/svg" xmlns:xlink="http://www.w3.org/1999/xlink" xml:space="preserve" xmlns:serif="http://www.serif.com/" style="fill-rule:evenodd;clip-rule:evenodd;stroke-linejoin:round;stroke-miterlimit:2;">
    <g id="XMLID_1051_">
        <path id="XMLID_1052_" d="M411.14,181.108C411.14,81.245 329.896,0 230.033,0L190.033,181.108L230.033,380.065L316.763,350.065L316.898,340.065C373.033,309.267 411.14,249.529 411.14,181.108Z" style="fill:rgb(29,186,161);fill-rule:nonzero;"/>
        <path id="XMLID_1053_" d="M48.925,181.108C48.925,81.245 130.169,0 230.033,0L230.033,380.065L142.763,350.065L143.168,340.065C87.033,309.267 48.925,249.529 48.925,181.108Z" style="fill:rgb(29,186,161);fill-rule:nonzero;"/>
        <path id="XMLID_1054_" d="M240.033,40L240.033,380.07L173.298,380.07L173.298,322.31L157.738,313.76C109.208,287.14 79.058,236.31 79.058,181.11C79.058,181.11 115.033,40 240.033,40Z" style="fill:rgb(232,228,182);fill-rule:nonzero;"/>
        <path id="XMLID_1055_" d="M230.033,30.003C146.837,30.15 79.057,97.88 79.057,181.11L109.057,181.11C109.057,114.42 163.376,60.15 230.032,60.003L230.032,380.07L286.767,380.07L286.767,322.31L302.327,313.76C350.857,287.14 381.007,236.31 381.007,181.11C381.008,97.88 313.229,30.15 230.033,30.003Z" style="fill:rgb(41,95,255);fill-rule:nonzero;"/>
        <path id="XMLID_1056_" d="M288.53,166.55C263.68,166.55 243.53,186.7 243.53,211.55L243.53,226.55L230.033,226.55L220.033,241.55L230.033,256.55L243.53,256.55L243.53,370.065L273.53,370.065L273.53,256.55L288.53,256.55C313.38,256.55 333.53,236.4 333.53,211.55C333.53,186.7 313.38,166.55 288.53,166.55ZM288.53,226.55C280.26,226.55 273.53,219.82 273.53,211.55C273.53,203.28 280.26,196.55 288.53,196.55C296.8,196.55 303.53,203.28 303.53,211.55C303.53,219.82 296.8,226.55 288.53,226.55Z" style="fill:rgb(174,44,127);fill-rule:nonzero;"/>
        <path id="XMLID_1059_" d="M230.033,226.55L216.266,226.55L216.266,211.55C216.266,186.7 196.116,166.55 171.266,166.55C146.416,166.55 126.266,186.7 126.266,211.55C126.266,236.4 146.416,256.55 171.266,256.55L186.266,256.55L186.266,370.065L216.266,370.065L216.266,256.55L230.033,256.55L230.033,226.55ZM171.265,226.55C162.995,226.55 156.265,219.82 156.265,211.55C156.265,203.28 162.995,196.55 171.265,196.55C179.535,196.55 186.265,203.28 186.265,211.55C186.265,219.82 179.535,226.55 171.265,226.55Z" style="fill:rgb(243,55,108);fill-rule:nonzero;"/>
        <path id="XMLID_1062_" d="M316.763,430.065L296.763,460.065L230.033,460.065L220.033,420.065L316.763,430.065Z" style="fill:rgb(15,1,120);fill-rule:nonzero;"/>
        <path id="XMLID_1063_" d="M316.763,390.065L316.763,430.065L230.033,430.065L220.033,380.065L316.763,390.065Z" style="fill:rgb(41,95,255);fill-rule:nonzero;"/>
        <path id="XMLID_1064_" d="M316.763,350.065L316.763,390.065L220.033,390.065L230.033,350.065L316.763,350.065Z" style="fill:rgb(135,79,253);fill-rule:nonzero;"/>
        <path id="XMLID_1065_" d="M142.763,430.065L162.763,460.065L230.033,460.065L230.033,430.065L186.398,410.065L142.763,430.065Z" style="fill:rgb(15,1,120);fill-rule:nonzero;"/>
        <path id="XMLID_1066_" d="M142.763,390.065L142.763,430.065L230.033,430.065L230.033,390.065L186.398,370.065L142.763,390.065Z" style="fill:rgb(135,79,253);fill-rule:nonzero;"/>
        <rect id="XMLID_1067_" x="142.763" y="350.065" width="87.27" height="40" style="fill:rgb(41,95,255);"/>
    </g>
</svg>
