<?xml version="1.0" encoding="UTF-8" standalone="no"?>
<!DOCTYPE svg PUBLIC "-//W3C//DTD SVG 1.1//EN" "http://www.w3.org/Graphics/SVG/1.1/DTD/svg11.dtd">
<svg width="100%" height="100%" viewBox="0 0 512 512" version="1.1" xmlns="http://www.w3.org/2000/svg" xmlns:xlink="http://www.w3.org/1999/xlink" xml:space="preserve" xmlns:serif="http://www.serif.com/" style="fill-rule:evenodd;clip-rule:evenodd;stroke-linejoin:round;stroke-miterlimit:2;">
    <path d="M503.463,315.744L477.269,313.869L384.004,307.213L128.014,307.213L8.55,315.744L9.148,313.869L34.151,238.946L145.08,187.749L366.938,187.749L477.867,238.946L503.463,315.744Z" style="fill:rgb(15,1,120);fill-rule:nonzero;"/>
    <path d="M477.867,315.744L358.403,307.213L102.414,307.213L9.148,313.869L34.151,238.946L145.08,187.749L341.337,187.749L452.266,238.946L477.269,313.869L477.867,315.744Z" style="fill:rgb(41,95,255);fill-rule:nonzero;"/>
    <path d="M290.14,426.673L315.741,460.804L290.14,460.804L298.675,503.47L256.009,469.339L213.343,503.47L221.877,460.804L196.277,460.804L221.877,426.673L290.14,426.673Z" style="fill:rgb(41,95,255);fill-rule:nonzero;"/>
    <path d="M298.675,392.541L298.675,410.119C298.675,423.942 290.992,435.207 281.609,435.207L230.408,435.207C221.022,435.207 213.343,423.942 213.343,410.119L213.343,392.541L298.675,392.541Z" style="fill:rgb(15,1,120);fill-rule:nonzero;"/>
    <path d="M286.984,44.567C265.567,55.915 235.787,47.47 225.545,44.056C227.037,41.614 227.834,38.81 227.85,35.947C227.858,28.65 230.811,21.666 236.041,16.58C247.248,5.905 264.856,5.905 276.063,16.58C281.348,21.635 284.34,28.634 284.34,35.947C284.379,39.017 285.297,42.005 286.984,44.567Z" style="fill:rgb(15,1,120);fill-rule:nonzero;"/>
    <path d="M359.087,359.519C356.419,362.855 353.54,366.019 350.47,368.991C329.99,388.787 287.324,401.076 256.009,401.076C251.759,401.096 247.517,400.869 243.295,400.392C214.112,397.748 179.809,386.229 161.974,368.991C158.677,366.007 155.544,362.843 152.587,359.519C94.906,287.499 151.224,151.313 194.656,82.71C199.718,74.086 205.636,65.996 212.319,58.559C215.136,55.661 218.635,52.673 221.706,49.259C223.155,47.657 224.44,45.911 225.545,44.056C232.635,46.415 239.916,48.153 247.306,49.259L247.392,49.259C253.458,50.196 259.606,50.481 265.735,50.114C273.137,49.817 280.383,47.927 286.984,44.567C290.765,49.708 295.117,54.403 299.952,58.559C306.64,66.016 312.585,74.101 317.702,82.71C361.305,151.313 417.112,287.499 359.087,359.519Z" style="fill:rgb(15,1,120);fill-rule:nonzero;"/>
    <path d="M273.075,392.541L273.075,410.119C273.075,423.942 265.395,435.207 256.009,435.207L230.408,435.207C221.022,435.207 213.343,423.942 213.343,410.119L213.343,392.541L273.075,392.541Z" style="fill:rgb(41,95,255);fill-rule:nonzero;"/>
    <path d="M333.486,359.519C330.818,362.855 327.939,366.019 324.869,368.991C307.12,386.143 272.563,397.748 243.295,400.392C214.112,397.748 179.809,386.229 161.974,368.991C158.677,366.007 155.544,362.843 152.587,359.519C94.906,287.499 151.224,151.313 194.656,82.71C199.718,74.086 205.636,65.996 212.319,58.559C215.136,55.661 218.635,52.673 221.706,49.259C230.186,50.626 238.826,50.626 247.306,49.259L247.392,49.259C252.267,48.423 256.985,46.837 261.384,44.567C262.61,46.583 264.071,48.442 265.735,50.114C268.551,53.184 271.793,55.829 274.356,58.559C281.039,66.016 286.984,74.101 292.101,82.71C335.705,151.313 391.511,287.499 333.486,359.519Z" style="fill:rgb(41,95,255);fill-rule:nonzero;"/>
    <path d="M341.337,264.547C341.337,311.673 303.136,349.875 256.009,349.875C208.882,349.875 170.68,311.673 170.68,264.547C170.68,217.42 208.882,179.218 256.009,179.218C303.136,179.218 341.337,217.42 341.337,264.547Z" style="fill:rgb(41,95,255);fill-rule:nonzero;"/>
    <path d="M290.14,110.951C290.14,129.802 274.86,145.087 256.009,145.087C237.158,145.087 221.877,129.802 221.877,110.951C221.877,92.104 237.158,76.82 256.009,76.82C274.86,76.82 290.14,92.104 290.14,110.951Z" style="fill:rgb(15,1,120);fill-rule:nonzero;"/>
    <path d="M34.749,313.869L59.751,238.946L170.501,187.835C182.926,150.973 199.625,115.689 220.256,82.71C225.315,74.086 231.233,65.996 237.92,58.559C240.736,55.661 244.232,52.673 247.306,49.259C246.638,49.165 246.052,49.028 245.392,48.927C246.033,49.028 246.708,49.098 247.357,49.192C248.783,47.61 250.052,45.895 251.146,44.071C252.638,41.63 253.435,38.825 253.45,35.966C253.458,28.67 256.411,21.686 261.641,16.596C263.774,14.588 266.208,12.924 268.852,11.663C257.978,6.155 244.814,8.135 236.041,16.596C230.811,21.686 227.858,28.67 227.85,35.966C227.834,38.825 227.037,41.63 225.545,44.071C226.69,44.454 228.166,44.927 229.76,45.388C228.139,44.907 226.698,44.454 225.545,44.071C224.44,45.931 223.155,47.673 221.706,49.278C218.635,52.688 215.136,55.676 212.319,58.579C205.636,66.012 199.718,74.101 194.656,82.726C174.028,115.705 157.325,150.989 144.9,187.85L34.151,238.946L9.148,313.869L8.55,315.744L34.749,313.876L34.749,313.869ZM242.049,48.337C240.752,48.083 239.541,47.833 238.33,47.563C239.521,47.809 240.76,48.091 242.049,48.337ZM235.299,46.86C234.088,46.563 233.022,46.274 231.936,46.009C232.971,46.267 234.104,46.563 235.299,46.86Z" style="fill:white;fill-rule:nonzero;"/>
    <path d="M251.146,44.056C252.298,44.438 253.704,44.907 255.36,45.368C253.763,44.899 252.286,44.438 251.146,44.056Z" style="fill:white;fill-rule:nonzero;"/>
    <path d="M291.359,50.114L291.257,50.001L291.343,50.114L291.359,50.114Z" style="fill:white;fill-rule:nonzero;"/>
    <path d="M272.52,49.192L272.692,49.192C272.125,49.106 271.547,49.048 270.985,48.962C271.512,49.013 271.993,49.114 272.52,49.192Z" style="fill:white;fill-rule:nonzero;"/>
    <path d="M267.649,48.337C266.36,48.091 265.087,47.825 263.927,47.563C265.137,47.809 266.352,48.083 267.649,48.337Z" style="fill:white;fill-rule:nonzero;"/>
    <path d="M260.899,46.86C259.704,46.563 258.603,46.267 257.536,46.009C258.618,46.274 259.685,46.563 260.899,46.86Z" style="fill:white;fill-rule:nonzero;"/>
    <path d="M30.577,231.2L131.291,184.714L141.506,180.003L148.654,195.499L138.451,200.209L37.725,246.696L30.577,231.2Z" style="fill:white;fill-rule:nonzero;"/>
    <g>
        <path d="M99.097,202.299C94.648,200.729 89.758,203.002 88.098,207.42L87.696,209.014C87.602,209.58 87.586,210.15 87.645,210.721C87.625,211.264 87.684,211.807 87.824,212.334C87.973,212.885 88.164,213.428 88.387,213.955C89.774,217.138 93.012,219.107 96.476,218.869C99.301,218.72 101.871,217.189 103.351,214.779C104.832,212.365 105.031,209.381 103.882,206.795C102.906,204.748 101.199,203.143 99.097,202.299Z" style="fill:rgb(29,186,161);fill-rule:nonzero;"/>
        <path d="M256.009,358.41C307.847,358.41 349.872,316.384 349.872,264.547C349.872,212.709 307.847,170.683 256.009,170.683C204.171,170.683 162.146,212.709 162.146,264.547C162.208,316.361 204.195,358.347 256.009,358.41ZM256.009,187.749C298.421,187.749 332.806,222.134 332.806,264.547C332.806,306.959 298.421,341.344 256.009,341.344C213.597,341.344 179.211,306.959 179.211,264.547C179.262,222.154 213.616,187.804 256.009,187.749Z" style="fill:rgb(29,186,161);fill-rule:nonzero;"/>
        <path d="M34.151,426.673C38.866,426.673 42.686,422.852 42.686,418.142L42.686,349.875C42.686,345.164 38.866,341.344 34.151,341.344C29.44,341.344 25.62,345.164 25.62,349.875L25.62,418.142C25.62,422.852 29.44,426.673 34.151,426.673Z" style="fill:rgb(29,186,161);fill-rule:nonzero;"/>
        <path d="M85.348,477.87L85.348,341.344C85.348,336.629 81.528,332.809 76.817,332.809C72.102,332.809 68.282,336.629 68.282,341.344L68.282,477.87C68.282,482.584 72.102,486.404 76.817,486.404C81.528,486.404 85.348,482.584 85.348,477.87Z" style="fill:rgb(29,186,161);fill-rule:nonzero;"/>
        <path d="M25.62,486.404C25.62,491.115 29.44,494.935 34.151,494.935C38.866,494.935 42.686,491.115 42.686,486.404L42.686,460.804C42.686,456.093 38.866,452.273 34.151,452.273C29.44,452.273 25.62,456.093 25.62,460.804L25.62,486.404Z" style="fill:rgb(29,186,161);fill-rule:nonzero;"/>
        <path d="M110.949,392.541C115.659,392.541 119.479,388.721 119.479,384.01L119.479,349.875C119.479,345.164 115.659,341.344 110.949,341.344C106.234,341.344 102.414,345.164 102.414,349.875L102.414,384.01C102.414,388.721 106.234,392.541 110.949,392.541Z" style="fill:rgb(29,186,161);fill-rule:nonzero;"/>
        <path d="M102.414,486.404C102.414,491.115 106.234,494.935 110.949,494.935C115.659,494.935 119.479,491.115 119.479,486.404L119.479,426.673C119.479,421.962 115.659,418.142 110.949,418.142C106.234,418.142 102.414,421.962 102.414,426.673L102.414,486.404Z" style="fill:rgb(29,186,161);fill-rule:nonzero;"/>
        <path d="M145.08,401.076L145.08,477.87C145.08,482.584 148.9,486.404 153.615,486.404C158.325,486.404 162.146,482.584 162.146,477.87L162.146,401.076C162.146,396.361 158.325,392.541 153.615,392.541C148.9,392.541 145.08,396.361 145.08,401.076Z" style="fill:rgb(29,186,161);fill-rule:nonzero;"/>
        <path d="M486.398,349.875C486.398,345.164 482.578,341.344 477.867,341.344C473.152,341.344 469.332,345.164 469.332,349.875L469.332,418.142C469.332,422.852 473.152,426.673 477.867,426.673C482.578,426.673 486.398,422.852 486.398,418.142L486.398,349.875Z" style="fill:rgb(29,186,161);fill-rule:nonzero;"/>
        <path d="M443.735,477.87L443.735,341.344C443.735,336.629 439.915,332.809 435.201,332.809C430.49,332.809 426.67,336.629 426.67,341.344L426.67,477.87C426.67,482.584 430.49,486.404 435.201,486.404C439.915,486.404 443.735,482.584 443.735,477.87Z" style="fill:rgb(29,186,161);fill-rule:nonzero;"/>
        <path d="M486.398,486.404L486.398,460.804C486.398,456.093 482.578,452.273 477.867,452.273C473.152,452.273 469.332,456.093 469.332,460.804L469.332,486.404C469.332,491.115 473.152,494.935 477.867,494.935C482.578,494.935 486.398,491.115 486.398,486.404Z" style="fill:rgb(29,186,161);fill-rule:nonzero;"/>
        <path d="M401.069,392.541C405.78,392.541 409.604,388.721 409.604,384.01L409.604,349.875C409.604,345.164 405.78,341.344 401.069,341.344C396.355,341.344 392.534,345.164 392.534,349.875L392.534,384.01C392.534,388.721 396.355,392.541 401.069,392.541Z" style="fill:rgb(29,186,161);fill-rule:nonzero;"/>
        <path d="M392.534,486.404C392.534,491.115 396.355,494.935 401.069,494.935C405.78,494.935 409.604,491.115 409.604,486.404L409.604,426.673C409.604,421.962 405.78,418.142 401.069,418.142C396.355,418.142 392.534,421.962 392.534,426.673L392.534,486.404Z" style="fill:rgb(29,186,161);fill-rule:nonzero;"/>
        <path d="M358.403,392.541C353.692,392.541 349.872,396.361 349.872,401.076L349.872,477.87C349.872,482.584 353.692,486.404 358.403,486.404C363.118,486.404 366.938,482.584 366.938,477.87L366.938,401.076C366.938,396.361 363.118,392.541 358.403,392.541Z" style="fill:rgb(29,186,161);fill-rule:nonzero;"/>
        <path d="M256.009,153.618C279.57,153.618 298.675,134.517 298.675,110.951C298.675,87.39 279.57,68.289 256.009,68.289C232.443,68.289 213.343,87.39 213.343,110.951C213.37,134.505 232.455,153.59 256.009,153.618ZM256.009,85.355C270.145,85.355 281.609,96.815 281.609,110.951C281.609,125.091 270.145,136.552 256.009,136.552C241.869,136.552 230.408,125.091 230.408,110.951C230.408,96.815 241.869,85.355 256.009,85.355Z" style="fill:rgb(29,186,161);fill-rule:nonzero;"/>
        <path d="M8.55,324.278L9.16,324.278L123.21,316.13C126.928,333.903 134.705,350.574 145.931,364.843C148.341,367.71 150.943,370.401 153.724,372.905L156.044,375.116C170.11,387.424 186.785,396.381 204.812,401.314L204.812,410.111C204.824,414.095 205.378,418.06 206.468,421.895C206.187,422.196 205.933,422.517 205.706,422.86L188.641,456.992C187.32,459.636 187.461,462.777 189.016,465.292C190.574,467.808 193.32,469.339 196.277,469.339L211.468,469.339L204.98,501.763C204.281,505.279 205.851,508.861 208.913,510.724C211.976,512.587 215.878,512.337 218.678,510.099L256.009,480.268L293.339,510.134C296.144,512.341 300.023,512.571 303.066,510.712C306.108,508.853 307.675,505.298 306.991,501.798L300.55,469.339L315.741,469.339C318.705,469.354 321.467,467.831 323.033,465.312C324.6,462.796 324.744,459.644 323.42,456.992L306.354,422.86C306.128,422.517 305.874,422.196 305.593,421.895C306.667,418.06 307.21,414.095 307.206,410.111L307.206,401.381C325.377,396.467 342.193,387.487 356.391,375.124C359.727,371.909 362.86,368.488 365.778,364.886C377.055,350.621 384.851,333.919 388.542,316.111L502.885,324.278L503.463,324.278C506.209,324.278 508.784,322.962 510.389,320.736C511.994,318.509 512.428,315.65 511.565,313.048L485.964,236.251C485.218,234.017 483.581,232.188 481.441,231.2L374.055,181.64C361.676,145.372 345.181,110.639 324.897,78.128C319.514,69.031 313.221,60.504 306.124,52.673C304.835,51.333 303.401,49.977 301.933,48.587C297.503,44.396 292.914,40.052 292.914,35.947C292.917,26.314 288.976,17.096 282.008,10.444C267.52,-3.454 244.65,-3.454 230.162,10.444C223.221,17.104 219.307,26.31 219.315,35.931C219.315,40.071 214.753,44.403 210.331,48.602C208.874,49.985 207.448,51.341 206.159,52.688C199.07,60.524 192.785,69.051 187.402,78.144C169.716,106.463 154.837,136.446 142.99,167.664C141.283,172.187 139.576,176.87 137.979,181.632L131.291,184.714L123.542,188.288C119.265,190.264 117.397,195.335 119.374,199.616C121.35,203.893 126.424,205.76 130.702,203.783L131.061,203.623C121.554,234.528 117.952,266.949 120.444,299.19L20.687,306.357L41.08,245.184L68.72,232.388C71.485,231.11 73.364,228.45 73.641,225.415C73.919,222.38 72.556,219.427 70.063,217.67C67.575,215.908 64.337,215.611 61.568,216.888L30.577,231.2L30.577,231.243C28.432,232.208 26.784,234.02 26.038,236.251L0.437,313.048C-0.43,315.654 0.008,318.517 1.617,320.743C3.226,322.97 5.804,324.282 8.55,324.278ZM290.14,452.273C287.578,452.273 285.152,453.421 283.531,455.41C281.91,457.394 281.266,459.999 281.777,462.511L285.711,482.205L261.341,462.706C258.224,460.214 253.794,460.214 250.677,462.706L226.307,482.139L230.24,462.511C230.752,459.999 230.108,457.394 228.487,455.41C226.866,453.421 224.44,452.273 221.877,452.273L210.085,452.273L216.909,438.688C220.69,441.879 225.463,443.664 230.408,443.738L281.609,443.738C286.566,443.672 291.351,441.887 295.14,438.688L301.968,452.273L290.14,452.273ZM290.14,410.111C290.14,420.224 285.09,426.673 281.609,426.673L230.408,426.673C226.928,426.673 221.877,420.224 221.877,410.111L221.877,405.732C233.092,408.177 244.529,409.478 256.009,409.607C267.485,409.482 278.922,408.193 290.14,405.767L290.14,410.111ZM470.937,245.153L491.331,306.326L391.249,299.174C393.745,266.945 390.21,234.536 380.828,203.604L470.937,245.153ZM242.006,22.705C245.759,19.072 250.786,17.057 256.009,17.092C261.263,17.057 266.325,19.072 270.114,22.713C273.719,26.142 275.774,30.888 275.805,35.865C263.766,43.415 248.517,43.595 236.307,36.326L236.307,35.947C236.318,30.943 238.377,26.158 242.006,22.705ZM201.831,87.265C206.612,79.144 212.183,71.515 218.464,64.492C219.573,63.332 220.803,62.168 222.057,60.977C224.967,58.313 227.67,55.426 230.135,52.348C238.228,56.555 247.197,58.789 256.317,58.868C265.243,58.786 274.004,56.438 281.777,52.04C284.32,55.247 287.117,58.239 290.14,60.992C291.402,62.18 292.64,63.34 293.757,64.508C300.058,71.535 305.651,79.164 310.456,87.284C330.201,118.873 346.294,152.606 358.43,187.827C358.477,189.499 359.012,191.116 359.973,192.487C378.875,250.203 385.386,313.287 352.438,354.16C349.974,357.218 347.318,360.121 344.497,362.855C325.307,381.448 284.422,392.541 256.009,392.541C227.748,392.541 187.078,381.448 167.958,362.871L165.395,360.476C163.204,358.511 161.142,356.406 159.228,354.168C118.671,303.611 141.623,219.4 158.911,173.707C170.36,143.559 184.738,114.607 201.831,87.265Z" style="fill:rgb(29,186,161);fill-rule:nonzero;"/>
        <g transform="matrix(124.594,0,0,144,211.524,313.105)">
            <path d="M0.096,-0C0.083,-0 0.073,-0.003 0.068,-0.009C0.062,-0.015 0.059,-0.024 0.059,-0.036L0.059,-0.643C0.059,-0.656 0.062,-0.665 0.068,-0.671C0.073,-0.677 0.083,-0.68 0.096,-0.68L0.149,-0.68C0.162,-0.68 0.172,-0.677 0.178,-0.671C0.184,-0.665 0.187,-0.656 0.187,-0.643L0.187,-0.391L0.515,-0.391L0.515,-0.643C0.515,-0.656 0.518,-0.665 0.524,-0.671C0.53,-0.677 0.54,-0.68 0.553,-0.68L0.605,-0.68C0.618,-0.68 0.628,-0.677 0.634,-0.671C0.64,-0.665 0.643,-0.656 0.643,-0.643L0.643,-0.036C0.643,-0.024 0.64,-0.015 0.635,-0.009C0.629,-0.003 0.619,-0 0.605,-0L0.553,-0C0.54,-0 0.53,-0.003 0.524,-0.009C0.518,-0.015 0.515,-0.024 0.515,-0.036L0.515,-0.294L0.187,-0.294L0.187,-0.036C0.187,-0.024 0.184,-0.015 0.179,-0.009C0.173,-0.003 0.163,-0 0.149,-0L0.096,-0Z" style="fill:rgb(250,57,105);fill-rule:nonzero;"/>
        </g>
    </g>
</svg>
