<?xml version="1.0" encoding="UTF-8" standalone="no"?>
<!DOCTYPE svg PUBLIC "-//W3C//DTD SVG 1.1//EN" "http://www.w3.org/Graphics/SVG/1.1/DTD/svg11.dtd">
<svg width="100%" height="100%" viewBox="0 0 511 511" version="1.1" xmlns="http://www.w3.org/2000/svg" xmlns:xlink="http://www.w3.org/1999/xlink" xml:space="preserve" xmlns:serif="http://www.serif.com/" style="fill-rule:evenodd;clip-rule:evenodd;stroke-linejoin:round;stroke-miterlimit:2;">
    <g transform="matrix(0.974233,0,0,1,17.6206,0)">
        <rect x="10.497" y="136.069" width="488.862" height="296.105" style="fill:rgb(15,1,120);"/>
    </g>
    <g transform="matrix(0.557238,0,0,1,4.11539,0)">
        <rect x="9.295" y="141.888" width="35.936" height="287.374" style="fill:white;"/>
    </g>
    <g transform="matrix(0.847569,0,0,0.915568,53.0651,13.1352)">
        <clipPath id="_clip1">
            <rect x="-34.915" y="66.876" width="527.625" height="397.058"/>
        </clipPath>
        <g clip-path="url(#_clip1)">
            <path d="M530.169,143.71C519.595,141.115 489.583,132.571 489.269,107.088C489.129,95.788 462.834,94.689 452.192,89.698C428.245,78.466 407.277,72.942 378.926,66.876C306.626,84.799 239.338,108.105 184.587,89.698C70.415,51.313 -24.618,90.094 -19.352,119.906C-17.829,128.531 -51.046,127.489 -55.58,132.803L-55.58,463.934L530.169,463.934L530.169,143.71Z" style="fill:rgb(143,39,136);"/>
            <clipPath id="_clip2">
                <path d="M530.169,143.71C519.595,141.115 489.583,132.571 489.269,107.088C489.129,95.788 462.834,94.689 452.192,89.698C428.245,78.466 407.277,72.942 378.926,66.876C306.626,84.799 239.338,108.105 184.587,89.698C70.415,51.313 -24.618,90.094 -19.352,119.906C-17.829,128.531 -51.046,127.489 -55.58,132.803L-55.58,463.934L530.169,463.934L530.169,143.71Z"/>
            </clipPath>
            <g clip-path="url(#_clip2)">
                <g transform="matrix(0.961679,0,0,1.12111,3.46172,-58.8866)">
                    <rect x="-55.58" y="66.876" width="585.749" height="397.058" style="fill:rgb(41,95,255);"/>
                </g>
            </g>
        </g>
    </g>
    <path d="M250.633,106.333L207.884,87.768L207.884,238.115L231.292,225.237L250.633,238.115L250.633,106.333Z" style="fill:white;"/>
    <g>
        <g transform="matrix(0.57021,0,0,1.01601,27.8151,-48.4725)">
            <rect x="9.295" y="141.888" width="35.936" height="287.374" style="fill:white;"/>
        </g>
        <path d="M487.5,128.106L479,128.106L479,103.606C479,100.701 477.322,98.057 474.693,96.82C405.088,64.066 325.408,63.6 255.5,95.371C185.592,63.6 105.912,64.067 36.307,96.82C33.678,98.057 32,100.701 32,103.606L32,128.106L23.5,128.106C10.542,128.106 0,138.648 0,151.606L0,415.606C0,428.564 10.542,439.106 23.5,439.106L487.5,439.106C500.458,439.106 511,428.564 511,415.606L511,151.606C511,138.648 500.458,128.106 487.5,128.106ZM263,380.073L263,108.416C327.137,79.709 399.861,79.709 464,108.416L464,135.577C464,135.587 463.999,135.597 463.999,135.606C463.999,135.615 464,135.626 464,135.635L464,380.073C431.763,366.612 397.629,359.88 363.5,359.88C329.371,359.88 295.236,366.612 263,380.073ZM215,96.391C226.187,99.595 237.217,103.589 248,108.416L248,225.593L235.66,217.366C233.14,215.686 229.859,215.686 227.34,217.366L215,225.593L215,96.391ZM47,135.626C47,135.619 47.001,135.613 47.001,135.606C47.001,135.599 47,135.594 47,135.587L47,108.416C95.563,86.68 149.046,81.417 200,92.596L200,125.452C173.233,119.947 145.922,118.675 118.672,121.702C114.555,122.159 111.589,125.867 112.046,129.984C112.504,134.1 116.208,137.069 120.328,136.61C147.036,133.643 173.807,135.048 199.999,140.775L199.999,189.461C184.087,186.196 167.859,184.394 151.622,184.138C147.477,184.06 144.07,187.377 144.004,191.518C143.939,195.66 147.243,199.07 151.384,199.136C167.715,199.394 184.038,201.3 199.998,204.783L199.998,221.443C156.609,212.534 111.608,214.799 69.25,228.108C65.298,229.349 63.102,233.559 64.343,237.511C65.35,240.715 68.307,242.765 71.496,242.765C72.241,242.765 72.998,242.653 73.746,242.418C114.654,229.566 158.174,227.645 199.998,236.78L199.998,239.605C199.998,242.371 201.52,244.913 203.959,246.217C206.397,247.523 209.357,247.379 211.658,245.845L231.498,232.618L247.998,243.618L247.998,380.072C215.761,366.611 181.627,359.879 147.498,359.879C113.369,359.879 79.234,366.611 46.998,380.072L46.998,135.626L47,135.626ZM224,424.106L23.5,424.106C18.813,424.106 15,420.293 15,415.606L15,151.606C15,146.919 18.813,143.106 23.5,143.106L32,143.106L32,399.606C32,403.748 35.358,407.106 39.5,407.106L224,407.106L224,424.106ZM57.29,392.106C115.389,369.172 179.61,369.171 237.71,392.106L57.29,392.106ZM272,424.106L239,424.106L239,407.106L272,407.106L272,424.106ZM453.71,392.106L273.29,392.106C331.389,369.172 395.61,369.172 453.71,392.106ZM496,415.606C496,420.293 492.187,424.106 487.5,424.106L287,424.106L287,407.106L471.5,407.106C475.642,407.106 479,403.748 479,399.606L479,143.106L487.5,143.106C492.187,143.106 496,146.919 496,151.606L496,415.606Z" style="fill:rgb(29,186,161);fill-rule:nonzero;"/>
        <g transform="matrix(1.51203,0,0,1.39944,-182.8,-76.9119)">
            <path d="M420.695,159.533C420.695,154.262 418.075,149.396 413.833,146.791C376.564,123.861 342.891,126.033 311.613,144.957C305.735,148.488 302.09,155.184 302.09,162.45C302.085,198.402 302.085,308.819 302.085,308.819C342.344,286.748 381.866,287.217 420.695,308.819L420.695,159.533Z" style="fill:rgb(15,1,120);"/>
        </g>
        <path d="M309.96,317.749C301.658,319.489 293.345,321.66 285.252,324.203C281.3,325.445 279.104,329.655 280.345,333.606C281.352,336.81 284.309,338.86 287.498,338.86C288.243,338.86 289,338.748 289.748,338.513C297.376,336.117 305.212,334.07 313.036,332.43C317.09,331.58 319.688,327.605 318.838,323.551C317.989,319.497 314.011,316.9 309.96,317.749Z" style="fill:rgb(29,186,161);fill-rule:nonzero;"/>
        <path d="M439.502,338.859C442.691,338.859 445.649,336.808 446.655,333.605C447.896,329.653 445.699,325.443 441.748,324.202C409.675,314.126 376.419,310.36 342.904,313.014C338.775,313.34 335.693,316.952 336.019,321.082C336.345,325.212 339.954,328.295 344.087,327.967C375.677,325.468 407.022,329.015 437.252,338.513C438,338.748 438.757,338.859 439.502,338.859Z" style="fill:rgb(29,186,161);fill-rule:nonzero;"/>
        <path d="M287.498,306.767C288.243,306.767 289,306.655 289.748,306.42C337.997,291.261 389.004,291.261 437.252,306.42C441.204,307.66 445.414,305.464 446.655,301.513C447.896,297.561 445.699,293.351 441.748,292.11C390.557,276.027 336.442,276.027 285.252,292.11C281.3,293.351 279.103,297.561 280.345,301.513C281.352,304.716 284.309,306.767 287.498,306.767Z" style="fill:rgb(29,186,161);fill-rule:nonzero;"/>
        <path d="M287.498,274.859C288.243,274.859 289,274.747 289.748,274.512C317.429,265.815 346.157,262.1 375.147,263.475C379.294,263.667 382.798,260.476 382.994,256.338C383.19,252.2 379.995,248.688 375.857,248.491C345.104,247.035 314.621,250.974 285.252,260.201C281.3,261.443 279.103,265.653 280.345,269.604C281.352,272.81 284.309,274.859 287.498,274.859Z" style="fill:rgb(29,186,161);fill-rule:nonzero;"/>
        <path d="M287.498,242.767C288.243,242.767 289,242.655 289.748,242.42C337.997,227.261 389.004,227.261 437.252,242.42C441.204,243.66 445.414,241.464 446.655,237.513C447.896,233.561 445.699,229.351 441.748,228.11C390.557,212.027 336.442,212.027 285.252,228.11C281.3,229.351 279.103,233.561 280.345,237.513C281.352,240.716 284.309,242.767 287.498,242.767Z" style="fill:rgb(29,186,161);fill-rule:nonzero;"/>
        <path d="M441.748,260.202C430.988,256.822 419.902,254.116 408.796,252.159C404.716,251.44 400.828,254.165 400.108,258.244C399.389,262.323 402.113,266.213 406.193,266.932C416.66,268.776 427.11,271.327 437.251,274.513C438,274.748 438.756,274.86 439.501,274.86C442.69,274.86 445.648,272.809 446.654,269.606C447.896,265.653 445.7,261.443 441.748,260.202Z" style="fill:rgb(29,186,161);fill-rule:nonzero;"/>
        <path d="M334.678,185.702C317.946,187.56 301.316,191.062 285.252,196.109C281.3,197.35 279.104,201.56 280.345,205.512C281.352,208.716 284.309,210.766 287.498,210.766C288.243,210.766 289,210.654 289.748,210.419C304.889,205.662 320.563,202.362 336.333,200.61C340.45,200.153 343.416,196.445 342.959,192.328C342.502,188.211 338.79,185.244 334.678,185.702Z" style="fill:rgb(29,186,161);fill-rule:nonzero;"/>
        <path d="M367.386,199.137C391.111,199.512 414.617,203.307 437.252,210.42C438,210.654 438.757,210.767 439.502,210.767C442.691,210.767 445.648,208.716 446.655,205.513C447.896,201.561 445.699,197.351 441.748,196.11C417.733,188.565 392.793,184.538 367.623,184.14C363.498,184.062 360.071,187.379 360.005,191.52C359.939,195.661 363.244,199.072 367.386,199.137Z" style="fill:rgb(29,186,161);fill-rule:nonzero;"/>
        <path d="M390.671,168.704C394.787,169.164 398.496,166.195 398.953,162.078C399.411,157.961 396.444,154.253 392.327,153.796C356.075,149.769 320.049,153.27 285.252,164.202C281.3,165.444 279.104,169.654 280.345,173.605C281.352,176.809 284.309,178.859 287.498,178.859C288.243,178.859 289,178.747 289.748,178.512C322.545,168.208 356.5,164.909 390.671,168.704Z" style="fill:rgb(29,186,161);fill-rule:nonzero;"/>
        <path d="M441.748,164.202C436.33,162.5 430.788,160.956 425.276,159.614C421.246,158.634 417.194,161.102 416.214,165.126C415.234,169.15 417.702,173.208 421.726,174.188C426.922,175.453 432.145,176.908 437.252,178.512C438,178.747 438.757,178.859 439.502,178.859C442.691,178.859 445.649,176.808 446.655,173.605C447.896,169.653 445.7,165.443 441.748,164.202Z" style="fill:rgb(29,186,161);fill-rule:nonzero;"/>
        <path d="M287.498,146.767C288.243,146.767 289,146.655 289.748,146.42C294.851,144.816 300.073,143.362 305.269,142.096C309.293,141.116 311.761,137.059 310.781,133.034C309.801,129.009 305.743,126.542 301.719,127.522C296.206,128.864 290.666,130.408 285.251,132.109C281.3,133.351 279.103,137.561 280.344,141.512C281.352,144.716 284.309,146.767 287.498,146.767Z" style="fill:rgb(29,186,161);fill-rule:nonzero;"/>
        <path d="M336.329,136.611C370.501,132.815 404.455,136.115 437.252,146.42C438,146.654 438.757,146.767 439.502,146.767C442.691,146.767 445.648,144.716 446.655,141.513C447.896,137.561 445.699,133.351 441.748,132.11C406.951,121.177 370.924,117.675 334.672,121.704C330.555,122.161 327.589,125.869 328.046,129.986C328.504,134.102 332.21,137.07 336.329,136.611Z" style="fill:rgb(29,186,161);fill-rule:nonzero;"/>
        <path d="M93.96,317.749C85.658,319.489 77.345,321.66 69.252,324.203C65.3,325.445 63.104,329.655 64.345,333.606C65.352,336.81 68.309,338.86 71.498,338.86C72.243,338.86 73,338.748 73.748,338.513C81.376,336.117 89.212,334.07 97.036,332.43C101.09,331.58 103.688,327.605 102.838,323.551C101.988,319.497 98.011,316.9 93.96,317.749Z" style="fill:rgb(29,186,161);fill-rule:nonzero;"/>
        <path d="M223.502,338.859C226.691,338.859 229.649,336.808 230.655,333.605C231.896,329.653 229.699,325.443 225.748,324.202C193.675,314.126 160.417,310.36 126.904,313.014C122.775,313.34 119.693,316.952 120.019,321.082C120.345,325.212 123.953,328.295 128.087,327.967C159.678,325.468 191.022,329.015 221.252,338.513C222,338.748 222.757,338.859 223.502,338.859Z" style="fill:rgb(29,186,161);fill-rule:nonzero;"/>
        <path d="M71.498,306.767C72.243,306.767 73,306.655 73.748,306.42C121.997,291.261 173.004,291.261 221.252,306.42C225.204,307.66 229.414,305.464 230.655,301.513C231.896,297.561 229.699,293.351 225.748,292.11C174.557,276.027 120.441,276.027 69.252,292.11C65.3,293.351 63.103,297.561 64.345,301.513C65.352,304.716 68.309,306.767 71.498,306.767Z" style="fill:rgb(29,186,161);fill-rule:nonzero;"/>
        <path d="M71.498,274.859C72.243,274.859 73,274.747 73.748,274.512C101.429,265.815 130.159,262.1 159.147,263.475C163.305,263.667 166.797,260.476 166.994,256.338C167.19,252.2 163.995,248.688 159.857,248.491C129.101,247.035 98.621,250.974 69.252,260.201C65.3,261.443 63.103,265.653 64.345,269.604C65.352,272.81 68.309,274.859 71.498,274.859Z" style="fill:rgb(29,186,161);fill-rule:nonzero;"/>
        <path d="M190.194,266.932C200.661,268.776 211.111,271.327 221.252,274.513C222.001,274.748 222.757,274.86 223.502,274.86C226.691,274.86 229.649,272.809 230.655,269.606C231.896,265.654 229.699,261.444 225.748,260.203C214.988,256.823 203.902,254.117 192.796,252.16C188.717,251.441 184.827,254.166 184.108,258.245C183.39,262.323 186.114,266.213 190.194,266.932Z" style="fill:rgb(29,186,161);fill-rule:nonzero;"/>
        <path d="M118.678,185.702C101.946,187.56 85.316,191.062 69.252,196.109C65.3,197.35 63.104,201.56 64.345,205.512C65.352,208.716 68.309,210.766 71.498,210.766C72.243,210.766 73,210.654 73.748,210.419C88.889,205.662 104.563,202.362 120.333,200.61C124.45,200.153 127.416,196.445 126.959,192.328C126.503,188.212 122.788,185.244 118.678,185.702Z" style="fill:rgb(29,186,161);fill-rule:nonzero;"/>
        <path d="M64.345,173.605C65.352,176.809 68.309,178.859 71.498,178.859C72.243,178.859 73,178.747 73.748,178.512C106.545,168.207 140.5,164.908 174.671,168.703C178.787,169.163 182.496,166.194 182.953,162.077C183.411,157.96 180.444,154.252 176.327,153.795C140.074,149.768 104.049,153.269 69.252,164.201C65.3,165.444 63.104,169.654 64.345,173.605Z" style="fill:rgb(29,186,161);fill-rule:nonzero;"/>
        <path d="M71.498,146.767C72.243,146.767 73,146.655 73.748,146.42C78.851,144.816 84.073,143.362 89.269,142.096C93.293,141.116 95.761,137.059 94.781,133.034C93.801,129.009 89.743,126.542 85.719,127.522C80.206,128.864 74.666,130.408 69.251,132.109C65.3,133.351 63.103,137.561 64.344,141.512C65.352,144.716 68.309,146.767 71.498,146.767Z" style="fill:rgb(29,186,161);fill-rule:nonzero;"/>
        <g transform="matrix(124.594,0,0,144,316.517,268.391)">
            <path d="M0.096,-0C0.083,-0 0.073,-0.003 0.068,-0.009C0.062,-0.015 0.059,-0.024 0.059,-0.036L0.059,-0.643C0.059,-0.656 0.062,-0.665 0.068,-0.671C0.073,-0.677 0.083,-0.68 0.096,-0.68L0.149,-0.68C0.162,-0.68 0.172,-0.677 0.178,-0.671C0.184,-0.665 0.187,-0.656 0.187,-0.643L0.187,-0.391L0.515,-0.391L0.515,-0.643C0.515,-0.656 0.518,-0.665 0.524,-0.671C0.53,-0.677 0.54,-0.68 0.553,-0.68L0.605,-0.68C0.618,-0.68 0.628,-0.677 0.634,-0.671C0.64,-0.665 0.643,-0.656 0.643,-0.643L0.643,-0.036C0.643,-0.024 0.64,-0.015 0.635,-0.009C0.629,-0.003 0.619,-0 0.605,-0L0.553,-0C0.54,-0 0.53,-0.003 0.524,-0.009C0.518,-0.015 0.515,-0.024 0.515,-0.036L0.515,-0.294L0.187,-0.294L0.187,-0.036C0.187,-0.024 0.184,-0.015 0.179,-0.009C0.173,-0.003 0.163,-0 0.149,-0L0.096,-0Z" style="fill:rgb(250,57,105);fill-rule:nonzero;"/>
        </g>
    </g>
</svg>
