<?xml version="1.0" encoding="UTF-8" standalone="no"?>
<!DOCTYPE svg PUBLIC "-//W3C//DTD SVG 1.1//EN" "http://www.w3.org/Graphics/SVG/1.1/DTD/svg11.dtd">
<svg width="100%" height="100%" viewBox="0 0 508 508" version="1.1" xmlns="http://www.w3.org/2000/svg" xmlns:xlink="http://www.w3.org/1999/xlink" xml:space="preserve" xmlns:serif="http://www.serif.com/" style="fill-rule:evenodd;clip-rule:evenodd;stroke-linejoin:round;stroke-miterlimit:2;">
    <path d="M254,136C159.2,136 82.1,213.1 82.1,307.9C82.1,402.7 159.2,479.8 254,479.8C348.8,479.8 425.9,402.7 425.9,307.9C425.9,213.1 348.8,136 254,136Z" style="fill:white;fill-rule:nonzero;"/>
    <g transform="matrix(1.39879,0,0,1.15599,-43.3512,-43.2104)">
        <ellipse cx="212.066" cy="303.779" rx="103.359" ry="124.076" style="fill:rgb(41,95,255);"/>
    </g>
    <g>
        <rect x="196.8" y="28.2" width="114.3" height="28.2" style="fill:rgb(41,95,255);"/>
        <path d="M277.5,109.2L277.5,84.7L230.5,84.7L230.5,109.2C246.1,107.4 261.9,107.4 277.5,109.2Z" style="fill:rgb(41,95,255);fill-rule:nonzero;"/>
        <path d="M377.6,150.6C385,156.4 392,162.8 398.5,169.6L420,148L400,128L377.6,150.6Z" style="fill:rgb(41,95,255);fill-rule:nonzero;"/>
    </g>
    <rect x="283.92" y="18.568" width="34.794" height="44.672" style="fill:rgb(15,1,120);"/>
    <rect x="283.92" y="18.568" width="34.794" height="44.672" style="fill:rgb(15,1,120);"/>
    <g transform="matrix(1,0,0,1,-22.0763,57.807)">
        <rect x="283.92" y="18.568" width="34.794" height="44.672" style="fill:rgb(15,1,120);"/>
    </g>
    <g transform="matrix(0.788867,0.614563,-0.614563,0.788867,204.436,-62.0214)">
        <rect x="283.92" y="18.568" width="34.794" height="44.672" style="fill:rgb(15,1,120);"/>
    </g>
    <g>
        <path d="M268.1,266.6L268.1,180.7C268.1,172.9 261.8,166.6 254,166.6C246.2,166.6 239.9,172.9 239.9,180.7L239.9,266.6C222.7,272.5 210.3,288.8 210.3,307.9C210.3,332 229.9,351.6 254,351.6C278.1,351.6 297.7,332 297.7,307.9C297.7,288.7 285.3,272.5 268.1,266.6ZM254,323.4C245.5,323.4 238.5,316.5 238.5,307.9C238.5,299.4 245.4,292.4 254,292.4C262.5,292.4 269.5,299.3 269.5,307.9C269.5,316.4 262.5,323.4 254,323.4Z" style="fill:rgb(250,57,105);fill-rule:nonzero;"/>
        <g transform="matrix(0.433658,0.901077,-0.901077,0.433658,421.899,-54.459)">
            <path d="M268.1,266.6L266.081,214.609C266.081,206.809 259.781,200.509 251.981,200.509C244.181,200.509 237.881,206.809 237.881,214.609L239.9,266.6C222.7,272.5 210.3,288.8 210.3,307.9C210.3,332 229.9,351.6 254,351.6C278.1,351.6 297.7,332 297.7,307.9C297.7,288.7 285.3,272.5 268.1,266.6ZM254,323.4C245.5,323.4 238.5,316.5 238.5,307.9C238.5,299.4 245.4,292.4 254,292.4C262.5,292.4 269.5,299.3 269.5,307.9C269.5,316.4 262.5,323.4 254,323.4Z" style="fill:rgb(250,57,105);fill-rule:nonzero;"/>
        </g>
        <path d="M450,158C452.6,155.4 454.1,151.8 454.1,148C454.1,144.2 452.6,140.7 450,138L410,98.2C404.5,92.7 395.6,92.7 390,98.2L353.6,134.6C338.7,126 322.6,119.3 305.6,114.7L305.6,84.7L325.1,84.7C332.9,84.7 339.2,78.4 339.2,70.6L339.2,14.1C339.2,6.3 332.9,0 325.1,0L182.7,0C174.9,0 168.6,6.3 168.6,14.1L168.6,70.5C168.6,78.3 174.9,84.6 182.7,84.6L202.2,84.6L202.2,114.6C116.9,137.5 53.9,215.5 53.9,307.9C53.9,418.2 143.7,508 254,508C364.3,508 454.1,418.2 454.1,307.9C454.1,264.5 440.1,224.3 416.6,191.4L450,158ZM400.1,128.1L420.1,148.1L398.6,169.6C398.6,169.6 398.5,169.6 398.5,169.7C392,162.9 385.1,156.6 377.7,150.8L377.7,150.7L400.1,128.1ZM196.9,56.4L196.9,28.2L311.2,28.2L311.2,56.4L196.9,56.4ZM277.5,84.7L277.5,109.3C269.8,108.4 262,107.8 254,107.8C246.1,107.8 238.2,108.3 230.5,109.2L230.5,84.7L277.5,84.7ZM425.9,307.9C425.9,402.7 348.8,479.8 254,479.8C150.9,479.4 82.1,393.5 82.1,307.9C82.1,213.1 159.2,136 254,136C348.8,136 425.9,213.1 425.9,307.9Z" style="fill:rgb(29,186,161);fill-rule:nonzero;"/>
    </g>
    <path d="M269.5,307.9C269.5,299.4 262.6,292.4 254,292.4C245.4,292.4 238.5,299.3 238.5,307.9C238.5,316.4 245.4,323.4 254,323.4C262.6,323.4 269.5,316.4 269.5,307.9Z" style="fill:white;fill-rule:nonzero;"/>
</svg>
